<?xml version="1.0" encoding="utf-8"?>
<!-- Generator: Adobe Illustrator 20.1.0, SVG Export Plug-In . SVG Version: 6.00 Build 0)  -->
<svg version="1.1" id="Layer_1" xmlns="http://www.w3.org/2000/svg" xmlns:xlink="http://www.w3.org/1999/xlink" x="0px" y="0px"
	 viewBox="0 0 90 40" style="enable-background:new 0 0 90 40;" xml:space="preserve">
<style type="text/css">
	.st0{fill:#1A5DAD;}
	.st1{fill:#FFFFFF;}
	.st2{fill:#EE293D;}
</style>
<path class="st0" d="M62.9,19.9c0,10.4-8.5,18.9-18.9,18.9C33.6,38.8,25,30.3,25,19.9C25,9.5,33.4,1,44,1C54.1,1,62.9,9.5,62.9,19.9
	"/>
<path class="st1" d="M48.2,29.8c8.1,3.3,6.7-5.1,2.4-11.5c-2.4-3.6-5.6-6.7-7.6-8.1c-6.7-4.9-10.8-1.9-6.1,7.7
	c1.5,3.1,3.5,5.2,5,7.2c1.2,1.5,3.4,2.3,2.6,3c-0.9,0.8-3.1-2.7-3.1-2.7c-1.6-1.9-3.1-4-4.7-6.9c-3.6-6.5-3.1-13.1,3.4-10.2
	c5.6,2.5,10.9,9.3,13,14.2C54.1,24.6,56.8,33.5,48.2,29.8"/>
<path class="st2" d="M23.1,25.5c3.6-2.4,6.9-3.9,12.7-5.8c8.1-2.7,14.1-4.5,21.6-8.2c3.3-1.7,9.1-5.4,11.2-8.7
	c-0.6,1.3-2.5,3.7-3.4,4.8C55,20.3,33.5,19.6,23.2,25.6"/>
<path class="st1" d="M28.2,16.3c3.3,0,2.9,0,3,0c0.1,0,2.6,4.4,2.6,4.4c0,0,0-1.6,0-3.5c0-0.2-0.6-0.9-0.6-0.9c0.9,0,2.1,0,2.1,0
	c-0.5,0.5-0.5,0.5-0.5,0.8c0,1.1,0,3,0,5.2c0,0.3,0.2,0.5,0.6,1h-3c-1-1.6-2.7-4.6-2.7-4.6c0,0,0,1.9,0,3.4c0,0.5,0.2,0.7,0.7,1.1
	c0,0,0.5,0-2.3,0c0.9-0.5,0.7-1,0.7-1c0-2.1,0-3.9,0-5C28.8,17,28.8,17,28.2,16.3"/>
<path class="st1" d="M38.4,19.5c0.3-0.9,0.5-1.8,0.6-2.3c0-0.1-0.2-0.4-0.6-0.8l0-0.1c1.7,0,3.6,0,3.6,0c0.5,1.2,1.6,4.4,2.4,6.4
	c0.2,0.5,0.6,0.6,0.6,0.6c-1.5,0-4.2,0-4.2,0c0.7-0.7,0.6-0.7,0.3-1.6h-2.3c-0.5,1.1,0.1,1.6,0.2,1.6c-0.5,0-2.3,0-2.3,0
	c1-0.7,0.9-0.9,0.9-0.9C37.8,21.5,38.2,20.4,38.4,19.5l0.9,0c-0.2,0.7-0.4,1.3-0.4,1.3h1.8l-1-2.6c0,0-0.2,0.7-0.4,1.3L38.4,19.5"/>
<path class="st1" d="M54.3,19.6c0.3-0.9,0.5-1.8,0.6-2.3c0-0.1-0.2-0.4-0.6-0.8l0-0.1c1.7,0,3.6,0,3.6,0c0.5,1.2,1.6,4.4,2.4,6.4
	c0.2,0.5,0.6,0.6,0.6,0.6c-1.5,0-4.2,0-4.2,0c0.7-0.7,0.6-0.7,0.3-1.6h-2.3c-0.5,1.1,0.1,1.6,0.2,1.6c-0.5,0-2.3,0-2.3,0
	c1-0.7,0.9-0.9,0.9-0.9C53.7,21.6,54,20.5,54.3,19.6l0.9,0c-0.2,0.7-0.4,1.3-0.4,1.3h1.8l-1-2.6c0,0-0.2,0.7-0.4,1.3L54.3,19.6"/>
<path class="st1" d="M51.3,18c0-1.3,0-1.8,0-1.8c-0.6,0.5-0.3,0.4-1.8,0.2c-4.2-0.7-4.6,3.3-2.3,4.1c1.9,0.7,2.6,0.9,2.3,1.6
	c-0.1,0.2-1.9,1.1-3.7-0.6l0,2.3c0.2-0.2,0.9-0.7,0.9-0.7c0,0,2,0.9,3.7,0c2.7-1.4,1.4-3.6-1.5-4.5C46.6,17.9,48.9,16.2,51.3,18"/>
<path class="st1" d="M44.2,2.7c0,0.1-0.1,0.2-0.2,0.2c-0.1,0-0.2-0.1-0.2-0.2c0-0.1,0.1-0.2,0.2-0.2C44.2,2.6,44.2,2.6,44.2,2.7"/>
<path class="st1" d="M45.3,5c0,0.1-0.1,0.2-0.2,0.2c-0.1,0-0.2-0.1-0.2-0.2c0-0.1,0.1-0.2,0.2-0.2C45.2,4.9,45.3,4.9,45.3,5"/>
<path class="st1" d="M48.1,8.9C48.1,9,48,9,47.9,9c-0.1,0-0.2-0.1-0.2-0.2c0-0.1,0.1-0.2,0.2-0.2C48,8.7,48.1,8.8,48.1,8.9"/>
<path class="st1" d="M43.6,6.4c0,0.1-0.1,0.2-0.2,0.2c-0.1,0-0.2-0.1-0.2-0.2c0-0.1,0.1-0.2,0.2-0.2C43.5,6.2,43.6,6.3,43.6,6.4"/>
<path class="st1" d="M45.3,7.2c0,0.1-0.1,0.2-0.2,0.2C45,7.4,45,7.3,45,7.2c0-0.1,0.1-0.2,0.2-0.2C45.2,7.1,45.3,7.2,45.3,7.2"/>
<path class="st1" d="M43.1,4.8C43.1,4.9,43,5,42.9,5c-0.1,0-0.2-0.1-0.2-0.2c0-0.1,0.1-0.2,0.2-0.2C43,4.6,43.1,4.7,43.1,4.8"/>
<path class="st1" d="M40.6,6.3c0,0.1-0.1,0.2-0.2,0.2c-0.1,0-0.2-0.1-0.2-0.2c0-0.1,0.1-0.2,0.2-0.2C40.5,6.2,40.6,6.2,40.6,6.3"/>
<path class="st1" d="M41,6.6c0,0.1-0.1,0.2-0.2,0.2c-0.1,0-0.2-0.1-0.2-0.2c0-0.1,0.1-0.2,0.2-0.2C41,6.5,41,6.5,41,6.6"/>
<path class="st1" d="M41.5,6.9c0,0.1-0.1,0.2-0.2,0.2c-0.1,0-0.2-0.1-0.2-0.2c0-0.1,0.1-0.2,0.2-0.2C41.4,6.8,41.5,6.8,41.5,6.9"/>
<path class="st1" d="M40.8,7.5c0,0.1-0.1,0.2-0.2,0.2c-0.1,0-0.2-0.1-0.2-0.2c0-0.1,0.1-0.2,0.2-0.2C40.7,7.4,40.8,7.4,40.8,7.5"/>
<path class="st1" d="M37.2,10c0,0.1-0.1,0.2-0.2,0.2s-0.2-0.1-0.2-0.2c0-0.1,0.1-0.2,0.2-0.2S37.2,9.9,37.2,10"/>
<path class="st1" d="M37.9,10.8c0,0.1-0.1,0.2-0.2,0.2s-0.2-0.1-0.2-0.2c0-0.1,0.1-0.2,0.2-0.2S37.9,10.8,37.9,10.8"/>
<path class="st1" d="M37.4,23.8c0,0.1-0.1,0.2-0.2,0.2c-0.1,0-0.2-0.1-0.2-0.2c0-0.1,0.1-0.2,0.2-0.2C37.3,23.7,37.4,23.8,37.4,23.8
	"/>
<path class="st1" d="M37.5,27.4c0,0.1-0.1,0.2-0.2,0.2c-0.1,0-0.2-0.1-0.2-0.2c0-0.1,0.1-0.2,0.2-0.2C37.4,27.2,37.5,27.3,37.5,27.4
	"/>
<path class="st1" d="M35.4,29.3c0,0.1-0.1,0.2-0.2,0.2c-0.1,0-0.2-0.1-0.2-0.2c0-0.1,0.1-0.2,0.2-0.2C35.3,29.1,35.4,29.2,35.4,29.3
	"/>
<path class="st1" d="M33,30c0,0.1-0.1,0.2-0.2,0.2c-0.1,0-0.2-0.1-0.2-0.2c0-0.1,0.1-0.2,0.2-0.2C32.9,29.8,33,29.9,33,30"/>
<path class="st1" d="M32.5,28.3c0,0.1-0.1,0.2-0.2,0.2c-0.1,0-0.2-0.1-0.2-0.2c0-0.1,0.1-0.2,0.2-0.2C32.4,28.2,32.5,28.2,32.5,28.3
	"/>
<path class="st1" d="M32.2,29.4c0,0.1-0.1,0.2-0.2,0.2s-0.2-0.1-0.2-0.2c0-0.1,0.1-0.2,0.2-0.2S32.2,29.3,32.2,29.4"/>
<path class="st1" d="M30.4,28.5c0,0.1-0.1,0.2-0.2,0.2c-0.1,0-0.2-0.1-0.2-0.2c0-0.1,0.1-0.2,0.2-0.2C30.3,28.4,30.4,28.4,30.4,28.5
	"/>
<path class="st1" d="M36.7,31.5c0,0.1-0.1,0.2-0.1,0.2c-0.1,0-0.2-0.1-0.2-0.2c0-0.1,0.1-0.2,0.2-0.2C36.7,31.3,36.7,31.4,36.7,31.5
	"/>
<path class="st1" d="M38.7,30.1c0,0.1-0.1,0.2-0.2,0.2c-0.1,0-0.2-0.1-0.2-0.2c0-0.1,0.1-0.2,0.2-0.2C38.6,29.9,38.7,30,38.7,30.1"
	/>
<path class="st1" d="M38.9,31.9c0,0.1-0.1,0.2-0.2,0.2c-0.1,0-0.2-0.1-0.2-0.2c0-0.1,0.1-0.2,0.2-0.2C38.8,31.7,38.9,31.8,38.9,31.9
	"/>
<path class="st1" d="M46.8,30.2c0,0.1-0.1,0.2-0.2,0.2c-0.1,0-0.2-0.1-0.2-0.2c0-0.1,0.1-0.2,0.2-0.2C46.7,30,46.8,30.1,46.8,30.2"
	/>
<path class="st1" d="M43.1,31.5c0,0.1-0.1,0.2-0.2,0.2c-0.1,0-0.2-0.1-0.2-0.2c0-0.1,0.1-0.2,0.2-0.2C43,31.3,43.1,31.4,43.1,31.5"
	/>
<path class="st1" d="M53,33.3c0,0.1-0.1,0.2-0.2,0.2c-0.1,0-0.2-0.1-0.2-0.2c0-0.1,0.1-0.2,0.2-0.2C52.9,33.2,53,33.3,53,33.3"/>
<path class="st1" d="M53.8,26.1c0,0.1-0.1,0.2-0.2,0.2c-0.1,0-0.2-0.1-0.2-0.2c0-0.1,0.1-0.2,0.2-0.2C53.7,25.9,53.8,25.9,53.8,26.1
	"/>
<path class="st1" d="M52.3,27.1c0,0.1-0.1,0.2-0.2,0.2c-0.1,0-0.2-0.1-0.2-0.2c0-0.1,0.1-0.2,0.2-0.2C52.2,26.9,52.3,27,52.3,27.1"
	/>
<path class="st1" d="M53.8,27.4c0,0.1-0.1,0.2-0.2,0.2c-0.1,0-0.2-0.1-0.2-0.2c0-0.1,0.1-0.2,0.2-0.2C53.7,27.2,53.8,27.3,53.8,27.4
	"/>
<path class="st1" d="M52.3,29.2c0,0.1-0.1,0.2-0.2,0.2c-0.1,0-0.2-0.1-0.2-0.2c0-0.1,0.1-0.2,0.2-0.2C52.2,29.1,52.3,29.1,52.3,29.2
	"/>
<path class="st1" d="M56.1,25c0,0.1-0.1,0.2-0.2,0.2c-0.1,0-0.2-0.1-0.2-0.2c0-0.1,0.1-0.2,0.2-0.2C56.1,24.9,56.1,24.9,56.1,25"/>
<path class="st1" d="M56.5,26c0,0.1-0.1,0.2-0.2,0.2c-0.1,0-0.2-0.1-0.2-0.2c0-0.1,0.1-0.2,0.2-0.2C56.4,25.8,56.5,25.9,56.5,26"/>
<path class="st1" d="M59.2,27.1c0,0.1-0.1,0.2-0.2,0.2c-0.1,0-0.2-0.1-0.2-0.2c0-0.1,0.1-0.2,0.2-0.2C59.1,26.9,59.2,27,59.2,27.1"
	/>
<path class="st1" d="M56.5,29c0,0.1-0.1,0.2-0.2,0.2c-0.1,0-0.2-0.1-0.2-0.2c0-0.1,0.1-0.2,0.2-0.2C56.4,28.9,56.5,29,56.5,29"/>
<path class="st1" d="M58.2,27.4c0,0.1-0.1,0.2-0.2,0.2s-0.2-0.1-0.2-0.2c0-0.1,0.1-0.2,0.2-0.2S58.2,27.4,58.2,27.4"/>
<path class="st1" d="M57.9,29.9c0,0.1-0.1,0.2-0.2,0.2c-0.1,0-0.2-0.1-0.2-0.2c0-0.1,0.1-0.2,0.2-0.2C57.8,29.8,57.9,29.8,57.9,29.9
	"/>
<path class="st1" d="M58.6,25.8c0,0.1-0.1,0.2-0.2,0.2c-0.1,0-0.2-0.1-0.2-0.2c0-0.1,0.1-0.2,0.2-0.2C58.5,25.6,58.6,25.7,58.6,25.8
	"/>
<path class="st1" d="M58.4,25.1l-0.1,0.7l-0.6,0.1l0.7,0.1l0.1,0.7l0.1-0.7l0.6-0.1l-0.6-0.1L58.4,25.1"/>
<path class="st1" d="M56.9,29.9c0,0.1-0.1,0.2-0.2,0.2c-0.1,0-0.2-0.1-0.2-0.2c0-0.1,0.1-0.2,0.2-0.2C56.8,29.7,56.9,29.8,56.9,29.9
	"/>
<path class="st1" d="M56.7,29.2l-0.1,0.7L56,29.9l0.7,0.1l0.1,0.7l0.1-0.7l0.6-0.1l-0.6-0.1L56.7,29.2"/>
<path class="st1" d="M39.2,10.3c0,0.1-0.1,0.2-0.2,0.2c-0.1,0-0.2-0.1-0.2-0.2c0-0.1,0.1-0.2,0.2-0.2C39.1,10.1,39.2,10.2,39.2,10.3
	"/>
<path class="st1" d="M39,9.6l-0.1,0.7l-0.6,0.1l0.7,0.1l0.1,0.7l0.1-0.7l0.6-0.1l-0.6-0.1L39,9.6"/>
<path class="st1" d="M48.1,4.6c0,0.1-0.1,0.2-0.2,0.2c-0.1,0-0.2-0.1-0.2-0.2c0-0.1,0.1-0.2,0.2-0.2C48,4.4,48.1,4.5,48.1,4.6"/>
<path class="st1" d="M47.8,3.9l-0.1,0.7l-0.6,0.1l0.7,0.1l0.1,0.7l0.1-0.7l0.6-0.1l-0.6-0.1L47.8,3.9"/>
<path class="st1" d="M37.3,33.7c0,0.1-0.1,0.2-0.2,0.2c-0.1,0-0.2-0.1-0.2-0.2c0-0.1,0.1-0.2,0.2-0.2C37.2,33.5,37.3,33.6,37.3,33.7
	"/>
<path class="st1" d="M37.1,33L37,33.6l-0.6,0.1l0.7,0.1l0.1,0.7l0.1-0.7l0.6-0.1l-0.6-0.1L37.1,33"/>
<path class="st2" d="M68.5,2.8C65.6,11.4,54.1,18,44.3,24.3c-5.9,3.8-11.7,8.2-15.7,11.9c-1.1,1,0.2-0.4-0.2,0
	c5.6-6.4,12-10.3,15.6-12.7c6-4.1,9.4-5.1,19.8-14.7"/>
<path class="st2" d="M25.5,24c-1,0.5-2,1-2.7,1.5l0.5,0.2c0.7-0.4,1.5-0.9,2.4-1.3"/>
<path class="st2" d="M31,33.6c-0.9,0.8-1.9,1.7-2.9,2.6l0,0.7c0.9-0.9,2-1.9,3.3-3"/>
<path class="st1" d="M48.2,29.8c8.1,3.3,6.7-5.1,2.4-11.5c-2.4-3.6-5.5-6.5-7.6-8.1c-2.5-1.9-2.8-2-2.8-2c5.7,2.7,10.9,9.3,13,14.2
	C54.1,24.6,56.8,33.5,48.2,29.8"/>
</svg>
